# xmcd
#
# Track frame offsets:
#	150
#	11075
#	21590
#	34722
#	47687
#	59830
#	71587
#	81472
#	91675
#	105372
#	117050
#	127572
#	137762
#	148742
#	159125
#	171887
#	183275
#	197022
#
# Disc length: 2799 seconds
#
# Revision: 0
# Processed by: cddbd v1.5.2PL0 Copyright (c) Steve Scherf et al.
# Submitted via: audiograbber 1.83.01
#
DISCID=ed0aed12
DTITLE=Various Artist - Best Of Bluegrass: Preachin', Prayin' and Singin'
DYEAR=1996
DGENRE=Bluegrass
TTITLE0=Lester Flatt and Earl Scruggs - Preachin' Prayin' Singin'
TTITLE1=The Stanley Brothers - Harbor Of Love
TTITLE2=Carl Story and His Ramblin' Mountaineers - I've Found A Hiding Place
TTITLE3=The Louvin Brothers - Do You Live What You Preach
TTITLE4=Lester Flatt and Earl Scruggs - God Loves His Children
TTITLE5=The Osborne Brothers - Lost Highway
TTITLE6=The Stanley Brothers - I Hear My Savior Calling
TTITLE7=Carl Story and His Ramblin' Mountaineers - Are You Walkin' And A Talkin' 
TTITLE7=For The Lord
TTITLE8=The Louvin Brothers - I'll Live With God To Die No More
TTITLE9=The Stanley Brothers - A Voice From On High
TTITLE10=Carl Story and His Ramblin' Mountaineers - God Saved My Soul
TTITLE11=Lester Flatt and Earl Scruggs - Take Me In A Lifeboat
TTITLE12=The Louvin Brothers - You'll Be Rewarded Over There
TTITLE13=The Osborne Brothers - The Black Sheep Returned To The Fold
TTITLE14=The Masters Family - The Man Of Galilee
TTITLE15=Carl Sauceman and His Hillbilly Ramblers - The Pale Horse And His Rider
TTITLE16=The Masters Family - That Little Old Country Church House
TTITLE17=Lowell Blanchard - Jesus Hits Like The Atom Bomb
EXTD=
EXTT0=Lester Flatt and Earl Scruggs
EXTT1=The Stanley Brothers
EXTT2=Carl Story and His Ramblin' Mountaineers
EXTT3=The Louvin Brothers
EXTT4=Lester Flatt and Earl Scruggs
EXTT5=The Osborne Brothers
EXTT6=The Stanley Brothers
EXTT7=Carl Story and His Ramblin' Mountaineers
EXTT8=The Louvin Brothers
EXTT9=The Stanley Brothers
EXTT10=Carl Story and His Ramblin' Mountaineers
EXTT11=Lester Flatt and Earl Scruggs
EXTT12=The Louvin Brothers
EXTT13=The Osborne Brothers
EXTT14=The Masters Family
EXTT15=Carl Sauceman and His Hillbilly Ramblers
EXTT16=The Masters Family
EXTT17=Lowell Blanchard
PLAYORDER=
